<svg width="4548" height="1299" xmlns="http://www.w3.org/2000/svg" xmlns:xlink="http://www.w3.org/1999/xlink" xml:space="preserve" overflow="hidden"><defs><clipPath id="clip0"><rect x="261" y="913" width="651" height="649"/></clipPath><clipPath id="clip1"><rect x="261" y="913" width="651" height="649"/></clipPath><clipPath id="clip2"><rect x="261" y="913" width="651" height="649"/></clipPath><clipPath id="clip3"><rect x="261" y="913" width="651" height="649"/></clipPath></defs><g transform="translate(74 -588)"><g clip-path="url(#clip0)"><g clip-path="url(#clip1)"><g clip-path="url(#clip2)"><g clip-path="url(#clip3)"><path d="M637.524 1521.41C646.276 1477.16 880.17 1442.41 985.679 1393.55 1091.19 1344.69 1208.8 1196.04 1270.57 1228.24 1332.35 1260.43 1192.77 1425.73 1179.51 1510.79 1166.26 1595.85 1193.07 1678.48 1191.04 1738.62 1189.01 1798.75 1193.76 1901.37 1141.6 1865.18 1089.44 1828.98 1017.18 1716.32 933.172 1659.03 849.154 1601.73 628.772 1565.65 637.524 1521.41Z" fill="#004FB8" fill-rule="evenodd" transform="matrix(1.00154 0 0 1 -376.253 -310.717)"/></g></g></g></g><path d="M3058 1087 3078.89 1087 3078.89 1125.39 3077.98 1145.22C3082.34 1140.85 3087.12 1137.12 3092.33 1134.03 3097.53 1130.94 3103.53 1129.39 3110.31 1129.39 3120.96 1129.39 3128.74 1132.82 3133.64 1139.67 3138.55 1146.52 3141 1156.32 3141 1169.05L3141 1232 3120.11 1232 3120.11 1171.6C3120.11 1162.99 3118.78 1156.83 3116.12 1153.13 3113.45 1149.43 3109.16 1147.58 3103.22 1147.58 3098.62 1147.58 3094.54 1148.71 3090.96 1150.95 3087.39 1153.19 3083.37 1156.56 3078.89 1161.05L3078.89 1232 3058 1232 3058 1087Z" fill-rule="evenodd"/><path d="M2910.09 1088C2913.85 1088 2916.94 1089.15 2919.36 1091.44 2921.79 1093.74 2923 1096.7 2923 1100.32 2923 1104.18 2921.79 1107.26 2919.36 1109.56 2916.94 1111.85 2913.85 1113 2910.09 1113 2906.09 1113 2902.91 1111.85 2900.55 1109.56 2898.18 1107.26 2897 1104.18 2897 1100.32 2897 1096.7 2898.18 1093.74 2900.55 1091.44 2902.91 1089.15 2906.09 1088 2910.09 1088Z" fill-rule="evenodd"/><path d="M2767 1098 2788.21 1098 2788.21 1152.73 2845.79 1152.73 2845.79 1098 2867 1098 2867 1232 2845.79 1232 2845.79 1171.09 2788.21 1171.09 2788.21 1232 2767 1232 2767 1098Z" fill-rule="evenodd"/><path d="M3981.14 1113C3996.08 1113 4009.38 1116.09 4021.04 1122.27 4032.69 1128.45 4042.25 1135.63 4049.72 1143.8L4029.28 1168.3C4022.9 1161.9 4015.81 1156.66 4008.01 1152.57 4000.21 1148.49 3991.47 1146.45 3981.8 1146.45 3967.73 1146.45 3955.36 1150.2 3944.7 1157.71 3934.04 1165.21 3925.68 1175.81 3919.64 1189.5 3913.59 1203.18 3910.57 1219.63 3910.57 1238.84 3910.57 1258.04 3913.43 1274.66 3919.14 1288.68 3924.86 1302.69 3932.99 1313.46 3943.54 1320.96 3954.1 1328.47 3966.52 1332.22 3980.81 1332.22 3991.8 1332.22 4001.64 1329.85 4010.32 1325.1 4019 1320.36 4026.97 1314.01 4034.23 1306.06L4055 1330.57C4045.11 1342.05 4033.95 1350.82 4021.53 1356.89 4009.11 1362.96 3994.99 1366 3979.16 1366 3963.99 1366 3949.86 1363.19 3936.78 1357.56 3923.7 1351.93 3912.22 1343.7 3902.33 1332.89 3892.43 1322.07 3884.74 1308.88 3879.24 1293.31 3873.75 1277.75 3871 1259.92 3871 1239.83 3871 1219.96 3873.86 1202.19 3879.57 1186.52 3885.29 1170.84 3893.09 1157.54 3902.99 1146.61 3912.88 1135.68 3924.53 1127.35 3937.94 1121.61 3951.35 1115.87 3965.75 1113 3981.14 1113Z" fill-rule="evenodd"/><path d="M1875.79 1113C1890.09 1113 1903.63 1115.76 1916.39 1121.28 1929.16 1126.8 1940.05 1134.3 1949.08 1143.8L1929.6 1168.3C1921.9 1161.46 1913.7 1156.1 1905 1152.24 1896.31 1148.38 1886.57 1146.45 1875.79 1146.45 1863.24 1146.45 1853.34 1149.26 1846.07 1154.89 1838.81 1160.52 1835.18 1168.08 1835.18 1177.57 1835.18 1184.64 1837.05 1190.43 1840.79 1194.96 1844.53 1199.49 1849.43 1203.24 1855.48 1206.22 1861.54 1209.2 1867.75 1212.01 1874.14 1214.66L1907.48 1228.9C1917.16 1232.88 1925.75 1237.73 1933.23 1243.47 1940.71 1249.21 1946.55 1256.17 1950.73 1264.34 1954.91 1272.5 1957 1282.66 1957 1294.8 1957 1307.83 1953.59 1319.69 1946.77 1330.4 1939.94 1341.11 1930.15 1349.72 1917.38 1356.23 1904.62 1362.74 1889.32 1366 1871.5 1366 1854.77 1366 1838.98 1362.8 1824.12 1356.4 1809.27 1349.99 1796.22 1341.16 1785 1329.9L1807.45 1303.41C1816.25 1312.02 1826.32 1318.98 1837.66 1324.27 1848.99 1329.57 1860.6 1332.22 1872.49 1332.22 1887.01 1332.22 1898.18 1329.02 1905.99 1322.62 1913.81 1316.22 1917.71 1307.94 1917.71 1297.78 1917.71 1290.28 1916.06 1284.26 1912.76 1279.74 1909.46 1275.21 1904.89 1271.4 1899.06 1268.31 1893.23 1265.22 1886.57 1262.02 1879.09 1258.71L1845.41 1244.14C1837.49 1240.82 1829.73 1236.46 1822.14 1231.06 1814.55 1225.65 1808.27 1218.8 1803.32 1210.52 1798.37 1202.25 1795.89 1192.15 1795.89 1180.22 1795.89 1167.42 1799.31 1155.94 1806.13 1145.78 1812.95 1135.63 1822.42 1127.63 1834.52 1121.78 1846.63 1115.93 1860.38 1113 1875.79 1113Z" fill-rule="evenodd"/><path d="M2575 1113C2595.91 1113 2614.3 1118.02 2630.15 1128.07 2646 1138.11 2658.44 1152.46 2667.46 1171.12 2676.49 1189.77 2681 1212.24 2681 1238.51 2681 1264.56 2676.49 1287.13 2667.46 1306.23 2658.44 1325.32 2646 1340.06 2630.15 1350.44 2614.3 1360.81 2595.91 1366 2575 1366 2554.31 1366 2535.98 1360.81 2520.02 1350.44 2504.06 1340.06 2491.57 1325.32 2482.54 1306.23 2473.51 1287.13 2469 1264.56 2469 1238.51 2469 1212.24 2473.51 1189.77 2482.54 1171.12 2491.57 1152.46 2504.06 1138.11 2520.02 1128.07 2535.98 1118.02 2554.31 1113 2575 1113ZM2575 1146.45C2561.57 1146.45 2549.85 1150.14 2539.83 1157.54 2529.82 1164.94 2522.11 1175.53 2516.72 1189.33 2511.32 1203.13 2508.63 1219.52 2508.63 1238.51 2508.63 1257.49 2511.32 1274 2516.72 1288.01 2522.11 1302.03 2529.82 1312.91 2539.83 1320.63 2549.85 1328.36 2561.57 1332.22 2575 1332.22 2588.43 1332.22 2600.15 1328.36 2610.17 1320.63 2620.18 1312.91 2627.95 1302.03 2633.45 1288.01 2638.95 1274 2641.7 1257.49 2641.7 1238.51 2641.7 1219.52 2638.95 1203.13 2633.45 1189.33 2627.95 1175.53 2620.18 1164.94 2610.17 1157.54 2600.15 1150.14 2588.43 1146.45 2575 1146.45Z" fill-rule="evenodd"/><path d="M3506 1118 3545 1118 3545 1361 3506 1361 3506 1118Z" fill-rule="evenodd"/><path d="M3609 1118 3653.39 1118 3697.77 1240.98C3700.64 1248.9 3703.4 1256.97 3706.05 1265.22 3708.7 1273.46 3711.35 1281.65 3714 1289.78L3715.66 1289.78C3718.53 1281.65 3721.24 1273.46 3723.77 1265.22 3726.31 1256.97 3728.91 1248.9 3731.56 1240.98L3775.28 1118 3820 1118 3820 1361 3784.23 1361 3784.23 1240.98C3784.23 1233.73 3784.5 1225.71 3785.05 1216.91 3785.61 1208.12 3786.27 1199.22 3787.04 1190.21 3787.81 1181.2 3788.64 1173.06 3789.53 1165.81L3787.87 1165.81 3768.33 1221.86 3725.93 1337.59 3702.08 1337.59 3659.35 1221.86 3639.81 1165.81 3638.48 1165.81C3639.36 1173.06 3640.19 1181.2 3640.96 1190.21 3641.74 1199.22 3642.4 1208.12 3642.95 1216.91 3643.5 1225.71 3643.78 1233.73 3643.78 1240.98L3643.78 1361 3609 1361 3609 1118Z" fill-rule="evenodd"/><path d="M1168 1118 1349 1118 1349 1150.31 1277.79 1150.31 1277.79 1361 1238.88 1361 1238.88 1150.31 1168 1150.31 1168 1118Z" fill-rule="evenodd"/><path d="M1441.42 1118 1485.58 1118 1566 1361 1525.46 1361 1504.97 1292.09 1420.71 1292.09 1400.22 1361 1361 1361 1441.42 1118ZM1462.18 1148.33C1458.67 1162.18 1454.99 1175.81 1451.14 1189.22 1447.3 1202.63 1443.4 1215.93 1439.44 1229.11L1429.73 1261.76 1495.95 1261.76 1486.24 1229.11C1482.29 1215.93 1478.44 1202.57 1474.71 1189.05 1470.97 1175.54 1467.24 1161.96 1463.5 1148.33L1462.18 1148.33Z" fill-rule="evenodd"/><path d="M1577 1118 1758 1118 1758 1150.31 1686.79 1150.31 1686.79 1361 1647.88 1361 1647.88 1150.31 1577 1150.31 1577 1118Z" fill-rule="evenodd"/><path d="M2000 1118 2038.17 1118 2038.17 1259.34C2038.17 1277.61 2040.42 1292.08 2044.92 1302.76 2049.42 1313.44 2055.56 1321.03 2063.35 1325.55 2071.13 1330.06 2080.07 1332.32 2090.16 1332.32 2100.48 1332.32 2109.58 1330.06 2117.48 1325.55 2125.38 1321.03 2131.63 1313.44 2136.23 1302.76 2140.84 1292.08 2143.14 1277.61 2143.14 1259.34L2143.14 1118 2180 1118 2180 1257.03C2180 1276.84 2177.86 1293.68 2173.58 1307.55 2169.31 1321.42 2163.22 1332.65 2155.32 1341.23 2147.42 1349.82 2137.93 1356.09 2126.86 1360.06 2115.78 1364.02 2103.55 1366 2090.16 1366 2076.78 1366 2064.55 1364.02 2053.47 1360.06 2042.4 1356.09 2032.91 1349.82 2025.01 1341.23 2017.11 1332.65 2010.97 1321.42 2006.58 1307.55 2002.19 1293.68 2000 1276.84 2000 1257.03L2000 1118Z" fill-rule="evenodd"/><path d="M2242 1118 2281.23 1118 2361.66 1260.77 2387.04 1311.87 2388.69 1311.87C2387.59 1299.56 2386.43 1286.37 2385.22 1272.31 2384.02 1258.24 2383.41 1244.61 2383.41 1231.42L2383.41 1118 2420 1118 2420 1361 2380.77 1361 2300.34 1217.9 2274.96 1167.13 2273.64 1167.13C2274.52 1179.66 2275.51 1192.74 2276.61 1206.36 2277.71 1219.99 2278.26 1233.51 2278.26 1246.92L2278.26 1361 2242 1361 2242 1118Z" fill-rule="evenodd"/><path d="M2986.26 1129C2989.18 1129 2991.88 1129.21 2994.37 1129.64 2996.86 1130.06 2999.02 1130.64 3000.84 1131.37L3036.36 1131.37 3036.36 1147.25 3017.41 1147.25C3019.24 1149.32 3020.75 1151.93 3021.97 1155.1 3023.18 1158.26 3023.79 1161.73 3023.79 1165.5 3023.79 1172.8 3022.12 1179.03 3018.78 1184.2 3015.44 1189.37 3010.92 1193.33 3005.21 1196.07 2999.5 1198.8 2993.19 1200.17 2986.26 1200.17 2984.08 1200.17 2981.74 1199.9 2979.25 1199.35 2976.76 1198.8 2974.42 1198.1 2972.24 1197.25 2970.66 1198.59 2969.35 1200.05 2968.32 1201.63 2967.29 1203.21 2966.77 1205.22 2966.77 1207.65 2966.77 1210.57 2967.96 1212.95 2970.32 1214.77 2972.69 1216.6 2977.09 1217.51 2983.53 1217.51L3002.11 1217.51C3013.89 1217.51 3022.82 1219.42 3028.89 1223.26 3034.96 1227.09 3038 1233.26 3038 1241.78 3038 1248.23 3035.87 1254.13 3031.62 1259.48 3027.37 1264.83 3021.33 1269.09 3013.5 1272.26 3005.66 1275.42 2996.4 1277 2985.72 1277 2977.7 1277 2970.54 1276 2964.22 1273.99 2957.91 1271.98 2952.96 1269.03 2949.37 1265.14 2945.79 1261.25 2944 1256.38 2944 1250.54 2944 1246.28 2945.28 1242.27 2947.83 1238.49 2950.38 1234.72 2953.96 1231.44 2958.57 1228.64L2958.57 1227.91C2956.02 1226.21 2953.87 1223.99 2952.11 1221.25 2950.35 1218.51 2949.47 1215.14 2949.47 1211.12 2949.47 1207.11 2950.65 1203.49 2953.02 1200.26 2955.39 1197.04 2957.97 1194.45 2960.76 1192.51L2960.76 1191.78C2957.24 1189.1 2954.14 1185.45 2951.47 1180.83 2948.8 1176.2 2947.46 1170.91 2947.46 1164.95 2947.46 1157.41 2949.25 1150.93 2952.83 1145.52 2956.42 1140.1 2961.15 1136 2967.04 1133.2 2972.93 1130.4 2979.34 1129 2986.26 1129ZM2986.26 1143.78C2982.74 1143.78 2979.55 1144.63 2976.7 1146.34 2973.85 1148.04 2971.57 1150.44 2969.87 1153.54 2968.17 1156.65 2967.32 1160.45 2967.32 1164.95 2967.32 1169.45 2968.2 1173.31 2969.96 1176.54 2971.72 1179.76 2974.03 1182.23 2976.88 1183.93 2979.74 1185.63 2982.86 1186.48 2986.26 1186.48 2989.66 1186.48 2992.82 1185.63 2995.74 1183.93 2998.65 1182.23 3000.96 1179.76 3002.66 1176.54 3004.36 1173.31 3005.21 1169.45 3005.21 1164.95 3005.21 1160.45 3004.36 1156.65 3002.66 1153.54 3000.96 1150.44 2998.68 1148.04 2995.83 1146.34 2992.97 1144.63 2989.79 1143.78 2986.26 1143.78ZM2970.41 1232.84C2967.5 1235.03 2965.37 1237.4 2964.04 1239.95 2962.7 1242.51 2962.03 1245 2962.03 1247.44 2962.03 1252.3 2964.4 1256.14 2969.14 1258.93 2973.88 1261.73 2980.37 1263.13 2988.63 1263.13 2994.58 1263.13 2999.68 1262.28 3003.93 1260.58 3008.18 1258.87 3011.52 1256.65 3013.95 1253.92 3016.38 1251.18 3017.6 1248.29 3017.6 1245.25 3017.6 1240.99 3016.02 1238.1 3012.86 1236.58 3009.7 1235.06 3005.09 1234.3 2999.02 1234.3L2983.9 1234.3C2981.47 1234.3 2979.16 1234.18 2976.97 1233.93 2974.79 1233.69 2972.6 1233.32 2970.41 1232.84Z" fill-rule="evenodd"/><path d="M2900 1132 2921 1132 2921 1232 2900 1232 2900 1132Z" fill-rule="evenodd"/><path d="M2968 1307 2989.14 1307 2989.14 1345.39 2988.22 1365.22C2992.63 1360.85 2997.47 1357.12 3002.74 1354.03 3008.01 1350.94 3014.07 1349.39 3020.94 1349.39 3031.72 1349.39 3039.59 1352.82 3044.56 1359.67 3049.52 1366.52 3052 1376.32 3052 1389.05L3052 1452 3030.86 1452 3030.86 1391.6C3030.86 1382.99 3029.51 1376.83 3026.82 1373.13 3024.12 1369.43 3019.77 1367.58 3013.77 1367.58 3009.11 1367.58 3004.98 1368.71 3001.36 1370.95 2997.75 1373.19 2993.67 1376.56 2989.14 1381.05L2989.14 1452 2968 1452 2968 1307Z" fill-rule="evenodd"/><path d="M3309 1307 3329.91 1307 3329.91 1429.82C3329.91 1432.61 3330.42 1434.59 3331.45 1435.75 3332.48 1436.9 3333.61 1437.48 3334.82 1437.48 3335.3 1437.48 3335.79 1437.45 3336.27 1437.39 3336.76 1437.33 3337.48 1437.24 3338.45 1437.12L3341 1452.99C3339.79 1453.48 3338.27 1453.94 3336.45 1454.36 3334.64 1454.79 3332.39 1455 3329.73 1455 3324.64 1455 3320.58 1453.94 3317.55 1451.81 3314.52 1449.68 3312.33 1446.64 3311 1442.68 3309.67 1438.73 3309 1434.07 3309 1428.72L3309 1307Z" fill-rule="evenodd"/><path d="M2808.14 1315C2816.05 1315 2823.52 1316.53 2830.57 1319.58 2837.62 1322.64 2843.64 1326.79 2848.62 1332.04L2837.87 1345.6C2833.61 1341.81 2829.08 1338.85 2824.28 1336.71 2819.48 1334.58 2814.1 1333.51 2808.14 1333.51 2801.22 1333.51 2795.74 1335.07 2791.73 1338.18 2787.72 1341.3 2785.72 1345.48 2785.72 1350.73 2785.72 1354.64 2786.75 1357.85 2788.82 1360.35 2790.88 1362.86 2793.59 1364.93 2796.93 1366.58 2800.27 1368.23 2803.71 1369.79 2807.23 1371.26L2825.65 1379.14C2831 1381.34 2835.74 1384.02 2839.87 1387.2 2844 1390.38 2847.23 1394.22 2849.54 1398.74 2851.85 1403.26 2853 1408.88 2853 1415.6 2853 1422.81 2851.12 1429.38 2847.35 1435.3 2843.58 1441.23 2838.17 1445.99 2831.12 1449.59 2824.07 1453.2 2815.62 1455 2805.77 1455 2796.54 1455 2787.81 1453.23 2779.61 1449.69 2771.4 1446.14 2764.2 1441.26 2758 1435.03L2770.4 1420.37C2775.26 1425.13 2780.82 1428.98 2787.08 1431.91 2793.34 1434.84 2799.76 1436.31 2806.32 1436.31 2814.34 1436.31 2820.51 1434.54 2824.83 1430.99 2829.14 1427.45 2831.3 1422.87 2831.3 1417.25 2831.3 1413.1 2830.39 1409.77 2828.57 1407.26 2826.74 1404.76 2824.22 1402.65 2821 1400.94 2817.78 1399.23 2814.1 1397.46 2809.97 1395.63L2791.37 1387.57C2786.99 1385.73 2782.71 1383.32 2778.51 1380.33 2774.32 1377.33 2770.86 1373.55 2768.12 1368.97 2765.39 1364.38 2764.02 1358.8 2764.02 1352.2 2764.02 1345.11 2765.9 1338.76 2769.67 1333.14 2773.44 1327.52 2778.67 1323.09 2785.35 1319.86 2792.04 1316.62 2799.64 1315 2808.14 1315Z" fill-rule="evenodd"/><path d="M2918.23 1349C2924.63 1349 2930.18 1350.1 2934.88 1352.3 2939.59 1354.5 2943.75 1357.25 2947.37 1360.55L2937.05 1374.31C2934.4 1371.86 2931.62 1369.94 2928.73 1368.53 2925.83 1367.12 2922.7 1366.42 2919.32 1366.42 2913.77 1366.42 2908.82 1367.92 2904.48 1370.91 2900.13 1373.91 2896.72 1378.07 2894.25 1383.39 2891.78 1388.7 2890.54 1394.91 2890.54 1402 2890.54 1409.09 2891.75 1415.3 2894.16 1420.61 2896.57 1425.93 2899.89 1430.06 2904.11 1432.99 2908.34 1435.93 2913.16 1437.39 2918.59 1437.39 2922.82 1437.39 2926.74 1436.51 2930.36 1434.74 2933.98 1432.96 2937.3 1430.79 2940.31 1428.22L2949 1442.35C2944.42 1446.5 2939.29 1449.65 2933.62 1451.79 2927.94 1453.93 2922.27 1455 2916.6 1455 2907.55 1455 2899.47 1452.89 2892.35 1448.67 2885.23 1444.45 2879.56 1438.4 2875.33 1430.52 2871.11 1422.63 2869 1413.13 2869 1402 2869 1390.75 2871.29 1381.19 2875.88 1373.3 2880.46 1365.41 2886.5 1359.39 2893.98 1355.24 2901.46 1351.08 2909.54 1349 2918.23 1349Z" fill-rule="evenodd"/><path d="M3122.18 1349C3128.23 1349 3134.1 1350.19 3139.78 1352.58 3145.47 1354.96 3150.49 1358.41 3154.85 1362.94 3159.2 1367.46 3162.65 1372.99 3165.19 1379.53 3167.73 1386.08 3169 1393.56 3169 1402 3169 1413.13 3166.79 1422.63 3162.38 1430.52 3157.96 1438.4 3152.21 1444.45 3145.14 1448.67 3138.06 1452.89 3130.41 1455 3122.18 1455 3113.95 1455 3106.24 1452.89 3099.04 1448.67 3091.85 1444.45 3086.04 1438.4 3081.62 1430.52 3077.21 1422.63 3075 1413.13 3075 1402 3075 1390.75 3077.21 1381.19 3081.62 1373.3 3086.04 1365.41 3091.85 1359.39 3099.04 1355.24 3106.24 1351.08 3113.95 1349 3122.18 1349ZM3122.18 1366.42C3116.86 1366.42 3112.29 1367.92 3108.48 1370.91 3104.67 1373.91 3101.74 1378.07 3099.68 1383.39 3097.62 1388.7 3096.59 1394.91 3096.59 1402 3096.59 1409.09 3097.62 1415.3 3099.68 1420.61 3101.74 1425.93 3104.67 1430.06 3108.48 1432.99 3112.29 1435.93 3116.86 1437.39 3122.18 1437.39 3127.38 1437.39 3131.89 1435.93 3135.7 1432.99 3139.51 1430.06 3142.45 1425.93 3144.5 1420.61 3146.56 1415.3 3147.59 1409.09 3147.59 1402 3147.59 1394.91 3146.56 1388.7 3144.5 1383.39 3142.45 1378.07 3139.51 1373.91 3135.7 1370.91 3131.89 1367.92 3127.38 1366.42 3122.18 1366.42Z" fill-rule="evenodd"/><path d="M3235.68 1349C3241.8 1349 3247.73 1350.19 3253.47 1352.58 3259.22 1354.96 3264.29 1358.41 3268.7 1362.94 3273.1 1367.46 3276.58 1372.99 3279.15 1379.53 3281.72 1386.08 3283 1393.56 3283 1402 3283 1413.13 3280.77 1422.63 3276.31 1430.52 3271.84 1438.4 3266.04 1444.45 3258.88 1448.67 3251.73 1452.89 3244 1455 3235.68 1455 3227.37 1455 3219.58 1452.89 3212.3 1448.67 3205.03 1444.45 3199.16 1438.4 3194.69 1430.52 3190.23 1422.63 3188 1413.13 3188 1402 3188 1390.75 3190.23 1381.19 3194.69 1373.3 3199.16 1365.41 3205.03 1359.39 3212.3 1355.24 3219.58 1351.08 3227.37 1349 3235.68 1349ZM3235.68 1366.42C3230.3 1366.42 3225.69 1367.92 3221.84 1370.91 3217.99 1373.91 3215.02 1378.07 3212.94 1383.39 3210.86 1388.7 3209.82 1394.91 3209.82 1402 3209.82 1409.09 3210.86 1415.3 3212.94 1420.61 3215.02 1425.93 3217.99 1430.06 3221.84 1432.99 3225.69 1435.93 3230.3 1437.39 3235.68 1437.39 3240.94 1437.39 3245.5 1435.93 3249.35 1432.99 3253.2 1430.06 3256.16 1425.93 3258.24 1420.61 3260.32 1415.3 3261.36 1409.09 3261.36 1402 3261.36 1394.91 3260.32 1388.7 3258.24 1383.39 3256.16 1378.07 3253.2 1373.91 3249.35 1370.91 3245.5 1367.92 3240.94 1366.42 3235.68 1366.42Z" fill-rule="evenodd"/></g></svg>