<svg width="4808" height="1299" xmlns="http://www.w3.org/2000/svg" xmlns:xlink="http://www.w3.org/1999/xlink" xml:space="preserve" overflow="hidden"><defs><clipPath id="clip0"><rect x="99" y="913" width="651" height="649"/></clipPath><clipPath id="clip1"><rect x="99" y="913" width="651" height="649"/></clipPath><clipPath id="clip2"><rect x="99" y="913" width="651" height="649"/></clipPath><clipPath id="clip3"><rect x="99" y="913" width="651" height="649"/></clipPath></defs><g transform="translate(204 -588)"><path d="M1456.25 1059 1492.83 1068.66 1479.24 1097.65 1530.22 1097.65 1537.45 1097.65 1544.28 1096.04 1568 1106.1C1559.69 1146.09 1547.5 1181.32 1531.42 1211.78 1515.34 1242.24 1496.45 1268.07 1474.74 1289.28 1453.04 1310.48 1429.06 1327.39 1402.79 1340 1401.19 1337.05 1398.77 1333.69 1395.56 1329.94 1392.34 1326.18 1389.06 1322.56 1385.71 1319.07 1382.36 1315.58 1379.21 1312.89 1376.26 1311.01 1401.45 1299.47 1424.43 1284.38 1445.2 1265.72L1458.71 1252.43 1455.15 1248.97C1452 1246.12 1448.48 1243.11 1444.6 1239.96 1436.83 1233.65 1428.45 1227.35 1419.48 1221.04 1414.99 1217.88 1410.58 1214.92 1406.26 1212.13L1404 1210.74 1399.97 1214.8C1396.29 1218.29 1392.54 1221.64 1388.73 1224.86 1385.51 1221.1 1381.36 1216.81 1376.26 1211.98 1371.17 1207.15 1366.75 1203.26 1363 1200.31 1377.2 1188.76 1390.4 1175.08 1402.59 1159.24 1414.79 1143.41 1425.5 1126.77 1434.75 1109.32 1443.99 1091.88 1451.16 1075.1 1456.25 1059ZM1464.51 1128.24 1456.19 1142.27 1460.12 1144.04C1464.44 1146.12 1468.85 1148.37 1473.34 1150.79 1482.32 1155.62 1490.82 1160.58 1498.86 1165.68L1509.75 1173.32 1517.2 1154.21C1519.86 1146.49 1522.28 1138.53 1524.45 1130.31L1524.92 1128.24 1464.51 1128.24ZM1441.25 1165.31 1431.13 1179.77 1423.34 1189.53 1427.21 1191.85C1431.57 1194.53 1436.02 1197.35 1440.58 1200.31 1449.69 1206.21 1458.2 1212.11 1466.1 1218.02L1478.34 1228.63 1486.73 1216.85 1496.4 1200.62 1481.98 1189.64C1473.94 1184.4 1465.43 1179.1 1456.46 1173.74 1451.97 1171.05 1447.56 1168.57 1443.24 1166.29L1441.25 1165.31Z" fill="#0D0D0D" fill-rule="evenodd"/><path d="M2335.25 1061C2341.69 1070.1 2348.05 1080.34 2354.35 1091.71 2360.65 1103.09 2365.01 1112.93 2367.42 1121.22L2349.22 1128.45 2416.37 1128.45 2418.18 1126.14C2420.93 1122.46 2423.71 1118.55 2426.53 1114.4 2432.16 1106.1 2437.59 1097.67 2442.81 1089.1 2448.04 1080.54 2452.26 1072.64 2455.48 1065.42L2496.09 1078.26C2487.24 1091.11 2477.86 1103.83 2467.94 1116.41 2465.46 1119.55 2463.04 1122.58 2460.66 1125.49L2458.19 1128.45 2517 1128.45 2517 1222 2479.6 1222 2479.6 1162.18 2208.19 1162.18 2208.19 1222 2172 1222 2172 1128.45 2230.78 1128.45 2229.3 1125.44C2226.75 1120.89 2223.74 1116.01 2220.25 1110.79 2213.28 1100.35 2206.31 1090.71 2199.34 1081.88L2231.51 1067.42C2239.02 1075.45 2246.39 1084.55 2253.63 1094.73 2260.86 1104.9 2266.09 1113.86 2269.31 1121.63L2255.3 1128.45 2329.81 1128.45 2327.46 1121.27C2325.48 1116.22 2323.05 1110.79 2320.17 1104.96 2314.41 1093.32 2308.31 1082.81 2301.88 1073.45L2335.25 1061Z" fill="#0D0D0D" fill-rule="evenodd"/><path d="M1154.61 1062 1199.97 1067.63C1195.15 1079.96 1190.2 1092.3 1185.12 1104.63L1180.11 1116.29 1322 1116.29 1322 1434.79 1282.26 1434.79 1282.26 1414.69 1077.14 1414.69 1077.14 1436 1039 1436 1039 1116.29 1141.19 1116.29 1143.57 1108.45C1145.84 1100.54 1147.99 1092.5 1149.99 1084.32 1152 1076.14 1153.54 1068.7 1154.61 1062ZM1077.14 1152.89 1077.14 1204.76 1282.26 1204.76 1282.26 1152.89 1077.14 1152.89ZM1077.14 1240.55 1077.14 1291.63 1282.26 1291.63 1282.26 1240.55 1077.14 1240.55ZM1077.14 1327.02 1077.14 1378.89 1282.26 1378.89 1282.26 1327.02 1077.14 1327.02Z" fill="#0D0D0D" fill-rule="evenodd"/><path d="M2052.41 1062 2089.95 1062 2089.95 1294.43 2134.35 1287.09 2140 1322.46 2089.95 1330.93 2089.95 1435 2052.41 1435 2052.41 1337.29 1924.05 1359.03 1918 1322.86 2052.41 1300.63 2052.41 1062Z" fill="#0D0D0D" fill-rule="evenodd"/><path d="M4118.69 1062 4153 1062 4153 1235.51C4153 1256.18 4151.99 1275.97 4149.97 1294.89 4147.95 1313.82 4144.05 1331.8 4138.27 1348.84 4132.48 1365.88 4123.74 1381.72 4112.03 1396.35 4100.33 1410.97 4084.79 1424.19 4065.41 1436 4063.8 1433.32 4061.64 1430.23 4058.95 1426.74 4056.26 1423.25 4053.37 1419.9 4050.27 1416.68 4047.18 1413.46 4044.42 1410.91 4042 1409.03 4058.95 1398.56 4072.54 1386.95 4082.77 1374.2 4092.99 1361.45 4100.66 1347.77 4105.77 1333.14 4110.89 1318.51 4114.32 1302.95 4116.07 1286.44 4117.82 1269.93 4118.69 1252.96 4118.69 1235.51L4118.69 1062Z" fill="#0D0D0D" fill-rule="evenodd"/><path d="M3143 1063 3177.48 1063 3177.48 1129.69 3201.14 1119.98C3205.42 1129.08 3209.76 1139.05 3214.18 1149.88 3218.59 1160.72 3221.86 1169.74 3224 1176.97L3198.34 1189.41C3196.47 1181.65 3193.46 1172.15 3189.31 1160.92 3187.24 1155.3 3185.15 1149.91 3183.05 1144.76L3177.48 1131.87 3177.48 1435 3143 1435 3143 1063Z" fill="#0D0D0D" fill-rule="evenodd"/><path d="M3318.88 1063 3356.3 1063 3356.3 1092.71 3458.93 1092.71 3458.93 1120.42 3356.3 1120.42 3356.3 1142.1 3448.46 1142.1 3448.46 1168.6 3356.3 1168.6 3356.3 1191.89 3471 1191.89 3471 1220 3207 1220 3207 1191.89 3318.88 1191.89 3318.88 1168.6 3229.54 1168.6 3229.54 1142.1 3318.88 1142.1 3318.88 1120.42 3219.07 1120.42 3219.07 1092.71 3318.88 1092.71 3318.88 1063Z" fill="#0D0D0D" fill-rule="evenodd"/><path d="M3588.41 1063 3623.4 1063 3623.4 1100.84 3679.72 1100.84 3679.72 1133.05 3623.4 1133.05 3623.4 1168.08 3695 1168.08 3695 1200.29 3655.42 1200.29 3674.49 1205.12C3670.46 1214.51 3666.64 1223.84 3663.02 1233.1 3661.21 1237.73 3659.39 1242.04 3657.54 1246.03L3653.8 1253.43 3689.77 1253.43 3689.77 1285.64 3623.4 1285.64 3623.4 1324.29 3684.94 1324.29 3684.94 1356.49 3623.4 1356.49 3623.4 1435 3588.41 1435 3588.41 1356.49 3524.46 1356.49 3524.46 1324.29 3588.41 1324.29 3588.41 1285.64 3520.84 1285.64 3520.84 1253.43 3556.25 1253.43 3554.98 1246.28C3554 1242.06 3552.75 1237.46 3551.21 1232.49 3548.12 1222.56 3544.7 1213.3 3540.95 1204.71L3558.4 1200.29 3514 1200.29 3514 1168.08 3588.41 1168.08 3588.41 1133.05 3528.08 1133.05 3528.08 1100.84 3588.41 1100.84 3588.41 1063ZM3570.84 1200.29 3575.54 1210.2C3577.42 1214.66 3579.16 1219.34 3580.77 1224.24 3583.99 1234.04 3586.13 1242.42 3587.2 1249.4L3572.84 1253.43 3639.65 1253.43 3624.61 1249C3626.76 1244.17 3628.97 1238.67 3631.25 1232.49 3633.53 1226.32 3635.67 1220.08 3637.68 1213.77 3638.69 1210.62 3639.61 1207.65 3640.45 1204.87L3641.78 1200.29 3570.84 1200.29Z" fill="#0D0D0D" fill-rule="evenodd"/><path d="M2640.25 1065 2677.35 1065 2677.35 1104.71 2756 1104.71 2756 1138 2562 1138 2562 1104.71 2640.25 1104.71 2640.25 1065Z" fill="#0D0D0D" fill-rule="evenodd"/><path d="M1897.87 1067 1919.98 1097.93C1907.12 1102.76 1892.71 1107.24 1876.77 1111.39L1867.32 1113.63 1867.32 1175.47 1924 1175.47 1924 1211.23 1867.32 1211.23 1867.32 1216.49 1868.2 1217.4C1870.56 1219.91 1873.75 1223.48 1877.77 1228.1 1883.13 1234.26 1888.83 1240.89 1894.86 1247.99 1900.89 1255.08 1906.38 1261.78 1911.34 1268.07 1916.3 1274.37 1919.85 1278.85 1921.99 1281.53L1899.08 1311.26C1896.67 1306.17 1893.32 1299.95 1889.03 1292.58 1884.74 1285.22 1880.05 1277.52 1874.96 1269.48 1872.41 1265.46 1869.94 1261.58 1867.52 1257.83L1867.32 1257.52 1867.32 1435 1830.34 1435 1830.34 1270.03 1822.5 1289.57C1815.94 1304.57 1808.91 1318.63 1801.4 1331.75 1793.9 1344.88 1786.26 1356.12 1778.49 1365.5 1776.61 1360.14 1773.8 1354.05 1770.05 1347.22 1766.3 1340.39 1762.95 1334.7 1760 1330.14 1767.24 1322.11 1774.34 1312.53 1781.3 1301.42 1788.27 1290.3 1795.04 1278.39 1801.6 1265.66 1808.17 1252.94 1814.06 1240.02 1819.29 1226.9L1825.16 1211.23 1765.63 1211.23 1765.63 1175.47 1830.34 1175.47 1830.34 1121.34 1827.73 1121.84C1810.98 1124.65 1794.84 1127.13 1779.29 1129.27 1778.76 1125.25 1777.42 1120.37 1775.27 1114.61 1773.13 1108.85 1770.99 1103.96 1768.84 1099.94 1784.12 1097.53 1799.66 1094.65 1815.47 1091.31 1831.28 1087.96 1846.35 1084.21 1860.69 1080.06 1875.03 1075.91 1887.42 1071.55 1897.87 1067Z" fill="#0D0D0D" fill-rule="evenodd"/><path d="M1618.55 1068 1654.68 1068 1654.68 1145.26 1734.56 1145.26 1734.56 1181.47 1660.7 1181.47 1663.11 1191.13C1666.18 1201.46 1669.66 1211.38 1673.54 1220.91 1681.3 1239.95 1691.2 1256.72 1703.25 1271.2 1715.29 1285.69 1729.87 1297.23 1747 1305.81 1744.06 1308.22 1740.91 1311.31 1737.57 1315.06 1734.22 1318.82 1731.14 1322.71 1728.33 1326.73 1725.52 1330.76 1723.18 1334.51 1721.31 1338 1703.11 1327.27 1687.59 1313.45 1674.75 1296.55 1661.9 1279.65 1651.33 1260.07 1643.04 1237.81L1641.36 1232.97 1635.81 1247.66C1628.32 1264.16 1617.35 1279.86 1602.89 1294.74 1588.44 1309.63 1569.44 1323.38 1545.89 1335.99 1542.95 1331.7 1538.94 1327 1533.85 1321.9 1528.77 1316.81 1523.82 1312.52 1519 1309.03 1541.21 1297.76 1558.94 1285.49 1572.19 1272.21 1585.43 1258.93 1595.4 1245.25 1602.09 1231.17 1608.78 1217.08 1613.2 1202.93 1615.34 1188.72L1616.17 1181.47 1558.34 1181.47 1558.34 1145.26 1618.55 1145.26 1618.55 1068Z" fill="#0D0D0D" fill-rule="evenodd"/><path d="M1692.6 1068C1697.93 1073.09 1703.33 1078.93 1708.8 1085.5 1714.27 1092.07 1719.33 1098.57 1724 1105.01 1728.67 1111.44 1732.33 1117.21 1735 1122.3L1706.2 1140C1702.2 1132.22 1696.27 1122.97 1688.4 1112.25 1680.53 1101.52 1672.73 1091.87 1665 1083.28L1692.6 1068Z" fill="#0D0D0D" fill-rule="evenodd"/><path d="M3706 1080 3833.35 1080 3851.89 1080 3868.82 1080 3868.82 1157.36C3868.82 1165.96 3867.61 1172.88 3865.19 1178.11 3862.77 1183.35 3858.07 1187.32 3851.09 1190 3844.37 1192.42 3835.64 1193.96 3824.89 1194.63 3814.14 1195.31 3801.11 1195.64 3785.8 1195.64 3785.26 1190.27 3783.92 1184.49 3781.77 1178.32 3779.62 1172.14 3777.33 1166.77 3774.92 1162.2 3782.44 1162.47 3789.63 1162.67 3796.48 1162.8 3803.33 1162.94 3809.31 1163 3814.41 1163 3819.52 1163 3823.14 1162.87 3825.29 1162.6 3828.52 1162.33 3830.67 1161.86 3831.74 1161.19 3832.82 1160.52 3833.35 1159.11 3833.35 1156.96L3833.35 1113.85 3741.06 1113.85 3741.06 1217.8 3841.82 1217.8 3848.67 1217.8 3855.12 1216.19 3878.09 1224.65C3873.25 1254.47 3865.66 1282.74 3855.32 1309.47 3850.15 1322.84 3844.32 1335.58 3837.84 1347.7L3832.11 1357.63 3839.4 1365.88C3855.52 1382.94 3873.39 1396.3 3893 1405.97 3888.7 1409.47 3884.07 1414.23 3879.1 1420.28 3874.13 1426.32 3870.16 1431.76 3867.21 1436.6 3847.06 1424.78 3828.85 1409.26 3812.6 1390.06L3811.44 1388.6 3804.24 1397.86C3791.54 1412.87 3777.33 1425.92 3761.62 1437 3758.66 1432.7 3754.7 1428.14 3749.73 1423.3 3747.24 1420.88 3744.87 1418.67 3742.62 1416.65L3741.06 1415.32 3741.06 1436.19 3706 1436.19 3706 1080ZM3772.92 1248.83 3781.92 1274.57C3786.59 1285.95 3791.84 1297.05 3797.69 1307.86 3800.61 1313.27 3803.67 1318.53 3806.87 1323.65L3808.99 1326.82 3815.12 1314.76C3817.74 1309.15 3820.19 1303.43 3822.47 1297.58 3827.04 1285.9 3830.94 1274.08 3834.16 1262.13L3836.97 1248.83 3772.92 1248.83ZM3741.06 1249.64 3741.06 1407.61 3750.28 1400.74C3763.88 1389.66 3776.12 1376.76 3787.01 1362.05L3789.36 1358.64 3779.54 1342.54C3776.26 1336.78 3773.1 1330.86 3770.08 1324.78 3764.03 1312.63 3758.53 1300.09 3753.56 1287.16L3741.06 1249.64Z" fill="#0D0D0D" fill-rule="evenodd"/><path d="M2897.81 1085 2926 1102.29C2918.22 1121.59 2909.69 1142.09 2900.43 1163.8 2891.17 1185.52 2882.11 1205.22 2873.25 1222.91 2885.87 1235.24 2895.46 1247.03 2902.04 1258.29 2908.62 1269.55 2913.18 1280.27 2915.73 1290.45 2918.28 1300.64 2919.56 1310.42 2919.56 1319.8 2919.56 1333.21 2917.95 1344.6 2914.73 1353.98 2911.5 1363.36 2906.13 1370.6 2898.62 1375.69 2891.37 1380.52 2882.38 1383.73 2871.64 1385.34 2866.81 1385.88 2861.44 1386.14 2855.53 1386.14 2849.63 1386.14 2843.72 1386.14 2837.82 1386.14 2837.55 1380.78 2836.61 1374.48 2835 1367.25 2833.39 1360.01 2830.97 1353.71 2827.75 1348.35 2833.39 1348.89 2838.55 1349.22 2843.25 1349.36 2847.95 1349.49 2852.04 1349.42 2855.53 1349.15 2858.75 1348.89 2861.71 1348.42 2864.39 1347.75 2867.08 1347.08 2869.63 1346.21 2872.04 1345.13 2876.07 1342.45 2878.82 1338.57 2880.3 1333.47 2881.77 1328.38 2882.51 1322.22 2882.51 1314.98 2882.51 1303.19 2879.22 1289.92 2872.65 1275.18 2866.07 1260.43 2853.52 1244.75 2835 1228.13 2839.56 1217.95 2844.19 1206.96 2848.89 1195.16 2853.59 1183.37 2858.22 1171.58 2862.78 1159.78 2867.34 1147.99 2871.44 1136.8 2875.06 1126.21L2876.52 1121.99 2812.45 1121.99 2812.45 1436 2775 1436 2775 1086.21 2884.53 1086.21 2891.77 1086.21 2897.81 1085Z" fill="#0D0D0D" fill-rule="evenodd"/><path d="M4161.19 1086 4292.94 1086 4292.94 1121.03 4243.79 1121.03 4243.79 1232.15 4290.52 1232.15 4290.52 1266.38 4243.79 1266.38 4243.79 1387.97 4301 1387.97 4301 1423 4135 1423 4135 1387.97 4207.52 1387.97 4207.52 1266.38 4164.01 1266.38 4164.01 1232.15 4207.52 1232.15 4207.52 1121.03 4161.19 1121.03 4161.19 1086Z" fill="#0D0D0D" fill-rule="evenodd"/><path d="M3927.45 1088 4046.33 1088 4046.33 1122.53 4004.42 1122.53 4004.42 1217.7 4039.88 1217.7 4039.88 1251.83 4004.42 1251.83 4004.42 1344.2 4050.76 1331.33 4056 1364.66C4033.7 1371.08 4011.47 1377.57 3989.31 1384.13 3967.14 1390.69 3946.93 1396.65 3928.66 1402L3921 1366.26C3929.33 1364.26 3938.46 1361.96 3948.4 1359.39L3969.36 1353.81 3969.36 1251.83 3931.48 1251.83 3931.48 1217.7 3969.36 1217.7 3969.36 1122.53 3927.45 1122.53 3927.45 1088Z" fill="#0D0D0D" fill-rule="evenodd"/><path d="M1972.46 1089C1980.21 1094.1 1988.22 1100.01 1996.51 1106.73 2004.79 1113.45 2012.55 1120.16 2019.76 1126.88 2026.98 1133.6 2032.72 1139.91 2037 1145.82L2010.54 1170C2006.53 1164.36 2001.12 1157.98 1994.3 1150.86 1987.49 1143.74 1980.01 1136.69 1971.85 1129.7 1963.7 1122.72 1955.75 1116.4 1948 1110.76L1972.46 1089Z" fill="#0D0D0D" fill-rule="evenodd"/><path d="M4054 1108 4086 1108 4086 1293 4054 1293 4054 1108Z" fill="#0D0D0D" fill-rule="evenodd"/><path d="M3110.28 1141 3138 1144.61C3137.73 1155.32 3136.79 1167.29 3135.19 1180.54 3133.58 1193.79 3131.64 1206.9 3129.36 1219.88 3127.08 1232.86 3124.47 1244.56 3121.53 1255L3093 1245.37C3095.95 1236 3098.62 1225.23 3101.04 1213.05 3103.45 1200.88 3105.46 1188.5 3107.06 1175.92 3108.67 1163.35 3109.74 1151.7 3110.28 1141Z" fill="#0D0D0D" fill-rule="evenodd"/><path d="M2698.36 1142 2735 1150.07C2730.66 1161.63 2726.25 1173.26 2721.77 1184.95 2717.29 1196.65 2712.88 1206.67 2708.54 1215L2678 1207.34C2680.71 1201.42 2683.29 1194.63 2685.74 1186.97 2688.18 1179.31 2690.55 1171.44 2692.86 1163.38 2695.17 1155.31 2697 1148.18 2698.36 1142Z" fill="#0D0D0D" fill-rule="evenodd"/><path d="M2618.11 1144C2622.45 1153.66 2626.24 1164.32 2629.5 1175.98 2632.75 1187.65 2634.92 1197.77 2636 1206.36L2602.26 1214C2601.72 1205.42 2599.89 1195.23 2596.77 1183.43 2593.66 1171.62 2590.06 1160.76 2586 1150.84L2618.11 1144Z" fill="#0D0D0D" fill-rule="evenodd"/><path d="M1957.21 1194C1965.54 1199.37 1974.22 1205.48 1983.23 1212.33 1992.24 1219.18 2000.64 1226.03 2008.44 1232.88 2016.24 1239.73 2022.43 1246.11 2027 1252.02L2001.18 1277C1996.88 1270.82 1990.89 1264.11 1983.23 1256.85 1975.56 1249.6 1967.36 1242.42 1958.62 1235.3 1949.88 1228.18 1941.34 1221.8 1933 1216.16L1957.21 1194Z" fill="#0D0D0D" fill-rule="evenodd"/><path d="M2433.6 1197 2457.76 1215.48C2448.64 1225.12 2438.16 1234.62 2426.35 1244 2414.54 1253.37 2402.12 1262.07 2389.1 1270.11 2382.59 1274.12 2376.1 1277.91 2369.62 1281.45L2362.73 1284.99 2362.73 1290.19 2523 1290.19 2523 1325.14 2362.73 1325.14 2362.73 1393.02C2362.73 1403.46 2361.18 1411.5 2358.09 1417.12 2355.01 1422.74 2349.17 1427.03 2340.58 1429.97 2332.25 1432.65 2321.92 1434.33 2309.57 1435 2297.22 1435.67 2282.05 1436 2264.06 1436 2262.99 1430.64 2260.91 1424.42 2257.82 1417.32 2254.73 1410.23 2251.58 1404.13 2248.36 1399.05 2257.76 1399.31 2266.95 1399.58 2275.94 1399.85 2284.94 1400.12 2292.79 1400.18 2299.5 1400.05 2306.21 1399.92 2310.91 1399.85 2313.6 1399.85 2317.62 1399.58 2320.31 1398.91 2321.65 1397.84 2322.99 1396.77 2323.66 1394.76 2323.66 1391.82L2323.66 1325.14 2165 1325.14 2165 1290.19 2323.66 1290.19 2323.66 1262.07 2342.71 1262.07 2345.86 1260.47C2351.4 1257.39 2356.95 1254.04 2362.52 1250.42L2387.5 1232.35 2234.26 1232.35 2234.26 1199.01 2415.88 1199.01 2425.14 1199.01 2433.6 1197Z" fill="#0D0D0D" fill-rule="evenodd"/><path d="M2552 1216 2761 1216 2761 1251 2552 1251 2552 1216Z" fill="#0D0D0D" fill-rule="evenodd"/><path d="M3235 1240 3404.79 1240 3412.03 1240 3441 1240 3441 1396.96C3441 1405.55 3439.93 1412.46 3437.78 1417.69 3435.64 1422.92 3431.34 1426.88 3424.91 1429.56 3418.47 1432.24 3410.42 1433.85 3400.77 1434.39 3391.11 1434.93 3379.17 1435.19 3364.96 1435.19 3364.15 1430.37 3362.74 1424.8 3360.73 1418.49 3358.72 1412.19 3356.51 1406.75 3354.09 1402.19 3363.48 1402.73 3372.4 1403 3380.85 1403 3389.3 1403 3394.86 1403 3397.55 1403 3402.38 1403 3404.79 1400.72 3404.79 1396.16L3404.79 1374.02 3270.41 1374.02 3270.41 1436 3235 1436 3235 1240ZM3270.41 1268.57 3270.41 1293.53 3404.79 1293.53 3404.79 1268.57 3270.41 1268.57ZM3270.41 1321.3 3270.41 1346.65 3404.79 1346.65 3404.79 1321.3 3270.41 1321.3Z" fill="#0D0D0D" fill-rule="evenodd"/><path d="M2578 1283 2740 1283 2740 1434.4 2703.11 1434.4 2703.11 1413.97 2613.29 1413.97 2613.29 1436 2578 1436 2578 1283ZM2613.29 1315.84 2613.29 1380.73 2703.11 1380.73 2703.11 1315.84 2613.29 1315.84Z" fill="#0D0D0D" fill-rule="evenodd"/><path d="M1690.08 1343C1696.84 1351.02 1703.66 1359.84 1710.55 1369.46 1717.45 1379.08 1723.86 1388.5 1729.81 1397.72 1735.76 1406.94 1740.49 1415.29 1744 1422.77L1705.08 1436C1701.84 1428.78 1697.45 1420.5 1691.91 1411.15 1686.36 1401.79 1680.28 1392.11 1673.66 1382.08 1667.04 1372.06 1660.49 1362.78 1654 1354.22L1690.08 1343Z" fill="#0D0D0D" fill-rule="evenodd"/><path d="M1419.33 1345 1456 1353.78C1451.17 1368.68 1444.72 1383.65 1436.66 1398.68 1428.6 1413.72 1419.33 1426.15 1408.86 1436L1373 1421.23C1382.67 1412.72 1391.67 1401.48 1399.99 1387.51 1408.32 1373.54 1414.77 1359.37 1419.33 1345Z" fill="#0D0D0D" fill-rule="evenodd"/><path d="M1607.95 1351C1611.45 1358.77 1614.89 1367.21 1618.26 1376.32 1621.62 1385.43 1624.58 1394.21 1627.14 1402.65 1629.7 1411.09 1631.65 1418.66 1633 1425.36L1595.03 1433C1593.41 1423.08 1590.45 1411.03 1586.14 1396.82 1581.83 1382.62 1577.12 1369.49 1572 1357.43L1607.95 1351Z" fill="#0D0D0D" fill-rule="evenodd"/><path d="M1526.04 1353C1528.7 1364.97 1530.96 1377.87 1532.81 1391.7 1534.67 1405.53 1535.73 1417.1 1536 1426.41L1498.96 1432C1498.96 1425.62 1498.63 1418.1 1497.97 1409.46 1497.31 1400.81 1496.44 1391.9 1495.38 1382.72 1494.32 1373.55 1492.86 1364.84 1491 1356.59L1526.04 1353Z" fill="#0D0D0D" fill-rule="evenodd"/><g clip-path="url(#clip0)"><g clip-path="url(#clip1)"><g clip-path="url(#clip2)"><g clip-path="url(#clip3)"><path d="M637.524 1521.41C646.276 1477.16 880.17 1442.41 985.679 1393.55 1091.19 1344.69 1208.8 1196.04 1270.57 1228.24 1332.35 1260.43 1192.77 1425.73 1179.51 1510.79 1166.26 1595.85 1193.07 1678.48 1191.04 1738.62 1189.01 1798.75 1193.76 1901.37 1141.6 1865.18 1089.44 1828.98 1017.18 1716.32 933.172 1659.03 849.154 1601.73 628.772 1565.65 637.524 1521.41Z" fill="#004FB8" fill-rule="evenodd" transform="matrix(1.00154 0 0 1 -539.253 -310.717)"/></g></g></g></g></g></svg>