<svg width="4548" height="1299" xmlns="http://www.w3.org/2000/svg" xmlns:xlink="http://www.w3.org/1999/xlink" xml:space="preserve" overflow="hidden"><defs><clipPath id="clip0"><rect x="231" y="929" width="651" height="650"/></clipPath><clipPath id="clip1"><rect x="231" y="929" width="651" height="650"/></clipPath><clipPath id="clip2"><rect x="231" y="929" width="651" height="650"/></clipPath><clipPath id="clip3"><rect x="231" y="929" width="651" height="650"/></clipPath></defs><g transform="translate(74 -588)"><g clip-path="url(#clip0)"><g clip-path="url(#clip1)"><g clip-path="url(#clip2)"><g clip-path="url(#clip3)"><path d="M231.253 1227.15C240.019 1182.83 474.274 1148.03 579.944 1099.09 685.615 1050.16 803.411 901.284 865.279 933.529 927.146 965.775 787.357 1131.32 774.076 1216.51 760.802 1301.71 787.651 1384.46 785.621 1444.69 783.585 1504.92 788.342 1607.7 736.107 1571.45 683.866 1535.2 611.498 1422.37 527.357 1364.98 443.209 1307.6 222.488 1271.46 231.253 1227.15Z" fill="#004FB8" fill-rule="evenodd"/></g></g></g></g><path d="M2153.99 1064 2192.99 1064 2192.99 1100.51 2351 1100.51 2351 1133 2000 1133 2000 1100.51 2153.99 1100.51 2153.99 1064Z" fill="#0D0D0D" fill-rule="evenodd"/><path d="M3986 1064 4020 1064 4020 1237.05C4020 1257.66 4019 1277.4 4017 1296.27 4015 1315.14 4011.13 1333.08 4005.4 1350.07 3999.67 1367.07 3991 1382.86 3979.4 1397.45 3967.8 1412.04 3952.4 1425.22 3933.2 1437 3931.6 1434.32 3929.47 1431.24 3926.8 1427.77 3924.13 1424.29 3921.27 1420.94 3918.2 1417.73 3915.13 1414.52 3912.4 1411.97 3910 1410.1 3926.8 1399.66 3940.27 1388.08 3950.4 1375.37 3960.53 1362.65 3968.13 1349 3973.2 1334.41 3978.27 1319.83 3981.67 1304.3 3983.4 1287.84 3985.13 1271.38 3986 1254.45 3986 1237.05L3986 1064Z" fill="#0D0D0D" fill-rule="evenodd"/><path d="M1243.32 1064 1280.28 1064 1280.28 1097.07 1348.57 1097.07 1348.57 1128.93 1308.4 1128.93 1328.89 1133.77C1325.14 1142.91 1321.46 1151.71 1317.84 1160.18 1316.03 1164.41 1314.34 1168.43 1312.77 1172.23L1309.88 1179.34 1355 1179.34 1355 1212 1169 1212 1169 1179.34 1211.69 1179.34 1210.53 1172.58C1209.69 1168.62 1208.64 1164.28 1207.36 1159.57 1204.82 1150.17 1201.94 1141.56 1198.73 1133.77L1220 1128.93 1175.43 1128.93 1175.43 1097.07 1243.32 1097.07 1243.32 1064ZM1229.69 1128.93 1233.78 1138.81C1235.32 1142.97 1236.76 1147.34 1238.1 1151.91 1240.78 1161.05 1242.78 1168.85 1244.12 1175.3L1228.26 1179.34 1294.7 1179.34 1279.48 1175.3C1282.15 1168.31 1285.03 1160.11 1288.11 1150.7 1289.65 1146 1290.97 1141.56 1292.08 1137.4L1294.01 1128.93 1229.69 1128.93Z" fill="#0D0D0D" fill-rule="evenodd"/><path d="M1374 1064 1410.97 1064 1410.97 1093.78 1535.96 1093.78 1535.96 1124.76 1410.97 1124.76 1410.97 1152.93 1520.29 1152.93 1520.29 1241.45 1410.97 1241.45 1410.97 1262.38 1520.29 1262.38 1520.29 1285.71 1410.97 1285.71 1410.97 1307.04 1517.88 1307.04 1517.88 1330.38 1410.97 1330.38 1410.97 1352.11 1521.9 1352.11 1521.9 1375.45 1518.88 1375.45 1526.72 1379.47C1533.15 1381.89 1538.91 1383.63 1544 1384.7 1542.66 1397.58 1540.38 1407.64 1537.17 1414.88 1533.95 1422.12 1529.13 1427.29 1522.7 1430.37 1516.27 1433.46 1507.43 1435 1496.17 1435 1494.3 1435 1491.02 1435 1486.33 1435 1481.64 1435 1476.42 1435 1470.65 1435 1464.89 1435 1459 1435 1452.97 1435 1446.94 1435 1441.65 1435 1437.1 1435 1432.54 1435 1429.33 1435 1427.45 1435 1413.52 1435 1402.67 1433.66 1394.9 1430.98 1387.13 1428.29 1381.7 1423.53 1378.62 1416.69 1375.54 1409.85 1374 1399.99 1374 1387.12L1374 1241.45 1374 1227.77 1374 1212.48 1483.31 1212.48 1483.31 1182.3 1374 1182.3 1374 1171.84 1374 1152.93 1374 1064ZM1410.97 1375.45 1410.97 1387.12C1410.97 1394.09 1412.18 1398.58 1414.59 1400.6 1417 1402.61 1422.76 1403.61 1431.87 1403.61 1434.02 1403.61 1437.83 1403.61 1443.33 1403.61 1448.82 1403.61 1454.91 1403.61 1461.61 1403.61 1468.31 1403.61 1474.61 1403.61 1480.5 1403.61 1486.4 1403.61 1490.55 1403.61 1492.96 1403.61 1497.51 1403.61 1501 1402.81 1503.41 1401.2 1505.82 1399.59 1507.63 1396.44 1508.83 1391.74 1509.74 1388.22 1510.38 1383.53 1510.76 1377.67L1510.86 1375.45 1410.97 1375.45Z" fill="#0D0D0D" fill-rule="evenodd"/><path d="M2459.51 1064 2494.99 1064 2494.99 1148.9 2542.16 1148.9 2542.16 1184.31 2494.99 1184.31 2494.99 1210.08 2495.43 1210.64C2497.72 1213.61 2500.73 1217.71 2504.46 1222.94 2509.44 1229.91 2514.88 1237.62 2520.79 1246.07 2526.71 1254.52 2532.08 1262.3 2536.92 1269.41 2541.76 1276.52 2545.12 1281.68 2547 1284.9L2525.63 1313.47C2523.21 1307.84 2519.85 1301 2515.55 1292.95 2511.25 1284.9 2506.61 1276.45 2501.64 1267.6L2494.99 1255.92 2494.99 1437 2459.51 1437 2459.51 1262.71 2453.86 1280.68C2447.95 1297.18 2441.63 1312.6 2434.91 1326.95 2428.2 1341.3 2421.07 1353.57 2413.55 1363.77 2411.67 1358.67 2408.91 1352.84 2405.28 1346.26 2401.65 1339.69 2398.23 1334.13 2395 1329.57 2401.99 1320.71 2408.64 1310.19 2414.96 1297.98 2421.27 1285.77 2427.25 1272.56 2432.9 1258.35 2438.54 1244.13 2443.58 1229.71 2448.02 1215.09L2455.69 1184.31 2403.87 1184.31 2403.87 1148.9 2459.51 1148.9 2459.51 1064Z" fill="#0D0D0D" fill-rule="evenodd"/><path d="M2637.29 1064 2674.7 1064 2674.7 1121.97 2768 1121.97 2768 1157 2546 1157 2546 1121.97 2637.29 1121.97 2637.29 1064Z" fill="#0D0D0D" fill-rule="evenodd"/><path d="M2990 1064 3024.49 1064 3024.49 1130.87 3048.14 1121.14C3052.42 1130.26 3056.76 1140.25 3061.18 1151.11 3065.59 1161.98 3068.86 1171.03 3071 1178.27L3045.34 1190.75C3043.47 1182.97 3040.46 1173.45 3036.31 1162.18 3034.24 1156.55 3032.15 1151.15 3030.05 1145.98L3024.49 1133.06 3024.49 1437 2990 1437 2990 1064Z" fill="#0D0D0D" fill-rule="evenodd"/><path d="M3165.45 1064 3202.74 1064 3202.74 1093.71 3304.97 1093.71 3304.97 1121.42 3202.74 1121.42 3202.74 1143.1 3294.55 1143.1 3294.55 1169.6 3202.74 1169.6 3202.74 1192.89 3317 1192.89 3317 1221 3054 1221 3054 1192.89 3165.45 1192.89 3165.45 1169.6 3076.45 1169.6 3076.45 1143.1 3165.45 1143.1 3165.45 1121.42 3066.03 1121.42 3066.03 1093.71 3165.45 1093.71 3165.45 1064Z" fill="#0D0D0D" fill-rule="evenodd"/><path d="M3446.41 1065 3481.4 1065 3481.4 1102.84 3537.72 1102.84 3537.72 1135.05 3481.4 1135.05 3481.4 1170.08 3553 1170.08 3553 1202.29 3513.42 1202.29 3532.49 1207.12C3528.46 1216.51 3524.64 1225.84 3521.02 1235.1 3519.21 1239.73 3517.39 1244.04 3515.54 1248.03L3511.8 1255.43 3547.77 1255.43 3547.77 1287.64 3481.4 1287.64 3481.4 1326.29 3542.94 1326.29 3542.94 1358.49 3481.4 1358.49 3481.4 1437 3446.41 1437 3446.41 1358.49 3382.46 1358.49 3382.46 1326.29 3446.41 1326.29 3446.41 1287.64 3378.84 1287.64 3378.84 1255.43 3414.25 1255.43 3412.98 1248.28C3412 1244.06 3410.75 1239.46 3409.21 1234.49 3406.12 1224.56 3402.7 1215.3 3398.95 1206.71L3416.4 1202.29 3372 1202.29 3372 1170.08 3446.41 1170.08 3446.41 1135.05 3386.08 1135.05 3386.08 1102.84 3446.41 1102.84 3446.41 1065ZM3428.84 1202.29 3433.54 1212.2C3435.42 1216.66 3437.16 1221.34 3438.77 1226.24 3441.99 1236.04 3444.13 1244.42 3445.2 1251.4L3430.84 1255.43 3497.65 1255.43 3482.61 1251C3484.76 1246.17 3486.97 1240.67 3489.25 1234.49 3491.53 1228.32 3493.67 1222.08 3495.68 1215.77 3496.69 1212.62 3497.61 1209.65 3498.45 1206.87L3499.78 1202.29 3428.84 1202.29Z" fill="#0D0D0D" fill-rule="evenodd"/><path d="M1922.59 1082 1947.15 1099.29C1940.17 1110.01 1932.19 1120.93 1923.19 1132.05 1914.2 1143.18 1904.54 1153.76 1894.2 1163.81L1879.13 1177.49 1886.35 1182.31C1897.36 1190.22 1906.48 1197.65 1913.73 1204.62L1904.58 1214.67 1916.55 1214.67 1922.19 1214.67 1928.23 1213.47 1954 1219.5C1949.7 1236.65 1944.74 1254.27 1939.1 1272.37 1933.46 1290.46 1927.96 1305.67 1922.59 1318L1891.58 1310.76C1894.81 1303.26 1897.89 1294.34 1900.85 1284.02 1903.8 1273.71 1906.68 1263.05 1909.5 1252.06L1909.77 1250.86 1871.85 1250.86 1871.85 1393.98C1871.85 1403.9 1870.64 1411.74 1868.23 1417.5 1865.81 1423.26 1861.11 1427.62 1854.13 1430.57 1847.15 1433.52 1838.3 1435.32 1827.56 1435.99 1816.82 1436.67 1804.07 1437 1789.3 1437 1788.77 1431.64 1787.36 1425.41 1785.07 1418.3 1782.79 1411.2 1780.31 1404.97 1777.62 1399.61 1788.36 1400.15 1798.36 1400.48 1807.62 1400.62 1816.89 1400.75 1822.99 1400.68 1825.95 1400.41 1829.17 1400.15 1831.32 1399.54 1832.39 1398.61 1833.46 1397.67 1834 1395.86 1834 1393.18L1834 1250.86 1774 1250.86 1774 1214.67 1871.23 1214.67 1862.59 1207.64C1851.58 1199.19 1839.77 1191.02 1827.15 1183.11 1814.54 1175.21 1802.32 1168.3 1790.51 1162.41L1814.27 1138.69C1826.35 1144.32 1838.63 1151.02 1851.11 1158.79L1852.19 1159.51 1854.44 1157.53C1858.53 1153.61 1862.59 1149.41 1866.62 1144.92L1888.31 1118.18 1778.83 1118.18 1778.83 1084.01 1905.28 1084.01 1914.54 1084.01 1922.59 1082Z" fill="#0D0D0D" fill-rule="evenodd"/><path d="M3563 1082 3690.35 1082 3708.89 1082 3725.82 1082 3725.82 1159.15C3725.82 1167.72 3724.61 1174.62 3722.19 1179.84 3719.77 1185.06 3715.07 1189.01 3708.09 1191.69 3701.37 1194.1 3692.64 1195.64 3681.89 1196.31 3671.14 1196.98 3658.11 1197.32 3642.8 1197.32 3642.26 1191.96 3640.92 1186.2 3638.77 1180.04 3636.62 1173.88 3634.33 1168.52 3631.92 1163.97 3639.44 1164.24 3646.63 1164.44 3653.48 1164.57 3660.33 1164.71 3666.31 1164.77 3671.41 1164.77 3676.52 1164.77 3680.14 1164.64 3682.29 1164.37 3685.52 1164.1 3687.67 1163.63 3688.74 1162.96 3689.82 1162.29 3690.35 1160.89 3690.35 1158.74L3690.35 1115.75 3598.06 1115.75 3598.06 1219.42 3698.82 1219.42 3705.67 1219.42 3712.12 1217.81 3735.09 1226.25C3730.25 1255.98 3722.66 1284.18 3712.32 1310.83 3707.15 1324.16 3701.32 1336.86 3694.84 1348.95L3689.11 1358.85 3696.4 1367.08C3712.52 1384.09 3730.39 1397.42 3750 1407.06 3745.7 1410.54 3741.07 1415.3 3736.1 1421.33 3731.13 1427.35 3727.16 1432.78 3724.21 1437.6 3704.06 1425.81 3685.85 1410.34 3669.6 1391.19L3668.44 1389.74 3661.24 1398.97C3648.54 1413.94 3634.33 1426.95 3618.62 1438 3615.66 1433.71 3611.7 1429.16 3606.73 1424.34 3604.24 1421.93 3601.87 1419.72 3599.62 1417.71L3598.06 1416.38 3598.06 1437.2 3563 1437.2 3563 1082ZM3629.92 1250.36 3638.92 1276.02C3643.59 1287.37 3648.84 1298.44 3654.69 1309.22 3657.61 1314.61 3660.67 1319.86 3663.87 1324.97L3665.99 1328.13 3672.12 1316.1C3674.74 1310.51 3677.19 1304.8 3679.47 1298.98 3684.04 1287.32 3687.94 1275.54 3691.16 1263.62L3693.97 1250.36 3629.92 1250.36ZM3598.06 1251.16 3598.06 1408.69 3607.28 1401.84C3620.88 1390.79 3633.12 1377.93 3644.01 1363.26L3646.36 1359.86 3636.54 1343.8C3633.26 1338.06 3630.1 1332.16 3627.08 1326.1 3621.03 1313.98 3615.53 1301.47 3610.56 1288.58L3598.06 1251.16Z" fill="#0D0D0D" fill-rule="evenodd"/><path d="M1589.83 1084 1765.78 1084 1765.78 1250.18 1696.04 1250.18 1696.04 1290.41 1765.78 1290.41 1765.78 1324.62 1696.04 1324.62 1696.04 1372.78 1701.85 1372.09C1726.03 1369.14 1750.15 1366.19 1774.2 1363.24L1775 1396.64C1752.29 1400.13 1729.31 1403.48 1706.06 1406.7 1682.81 1409.92 1660.57 1413 1639.33 1415.95 1618.08 1418.9 1598.78 1421.59 1581.41 1424L1577 1386.58C1593.3 1384.7 1612.14 1382.56 1633.51 1380.14L1659.17 1377.12 1659.17 1324.62 1589.83 1324.62 1589.83 1290.41 1659.17 1290.41 1659.17 1250.18 1589.83 1250.18 1589.83 1084ZM1621.49 1114.58 1621.49 1152.4 1661.57 1152.4 1661.57 1114.58 1621.49 1114.58ZM1693.64 1114.58 1693.64 1152.4 1733.32 1152.4 1733.32 1114.58 1693.64 1114.58ZM1621.49 1181.37 1621.49 1219.6 1661.57 1219.6 1661.57 1181.37 1621.49 1181.37ZM1693.64 1181.37 1693.64 1219.6 1733.32 1219.6 1733.32 1181.37 1693.64 1181.37Z" fill="#0D0D0D" fill-rule="evenodd"/><path d="M4029.19 1087 4160.94 1087 4160.94 1122.03 4111.79 1122.03 4111.79 1233.15 4158.52 1233.15 4158.52 1267.38 4111.79 1267.38 4111.79 1388.97 4169 1388.97 4169 1424 4003 1424 4003 1388.97 4075.52 1388.97 4075.52 1267.38 4032.01 1267.38 4032.01 1233.15 4075.52 1233.15 4075.52 1122.03 4029.19 1122.03 4029.19 1087Z" fill="#0D0D0D" fill-rule="evenodd"/><path d="M3795.45 1089 3914.33 1089 3914.33 1123.64 3872.42 1123.64 3872.42 1219.11 3907.88 1219.11 3907.88 1253.35 3872.42 1253.35 3872.42 1346.02 3918.76 1333.1 3924 1366.54C3901.7 1372.98 3879.47 1379.5 3857.31 1386.07 3835.14 1392.65 3814.93 1398.63 3796.66 1404L3789 1368.15C3797.33 1366.14 3806.46 1363.84 3816.4 1361.25L3837.36 1355.65 3837.36 1253.35 3799.48 1253.35 3799.48 1219.11 3837.36 1219.11 3837.36 1123.64 3795.45 1123.64 3795.45 1089Z" fill="#0D0D0D" fill-rule="evenodd"/><path d="M3922 1110 3953 1110 3953 1295 3922 1295 3922 1110Z" fill="#0D0D0D" fill-rule="evenodd"/><path d="M2957.28 1143 2985 1146.61C2984.73 1157.32 2983.79 1169.29 2982.19 1182.54 2980.58 1195.79 2978.64 1208.9 2976.36 1221.88 2974.08 1234.86 2971.47 1246.56 2968.53 1257L2940 1247.37C2942.95 1238 2945.62 1227.23 2948.04 1215.05 2950.45 1202.88 2952.46 1190.5 2954.06 1177.92 2955.67 1165.34 2956.74 1153.7 2957.28 1143Z" fill="#0D0D0D" fill-rule="evenodd"/><path d="M2067 1153 2285 1153 2285 1238 2067 1238 2067 1153ZM2103.47 1178.94 2103.47 1211.26 2246.93 1211.26 2246.93 1178.94 2103.47 1178.94Z" fill="#0D0D0D" fill-rule="evenodd"/><path d="M2709.66 1164C2717.95 1172.6 2726.36 1181.94 2734.92 1192.02 2743.47 1202.09 2751.28 1212.1 2758.36 1222.05 2765.45 1231.99 2770.99 1241.13 2775 1249.46L2742.93 1268C2739.19 1259.67 2733.98 1250.46 2727.3 1240.39 2720.62 1230.31 2713.14 1220.03 2704.85 1209.55 2696.57 1199.07 2688.28 1189.4 2680 1180.53L2709.66 1164Z" fill="#0D0D0D" fill-rule="evenodd"/><path d="M2596.31 1166 2631 1180.03C2622.39 1196.86 2611.97 1213.36 2599.74 1229.52 2587.5 1245.68 2574.66 1259.51 2561.22 1271 2558.26 1267.53 2554.16 1263.45 2548.92 1258.78 2543.67 1254.1 2539.03 1250.29 2535 1247.35 2547.37 1237.2 2559.07 1224.65 2570.09 1209.68 2581.12 1194.72 2589.86 1180.16 2596.31 1166Z" fill="#0D0D0D" fill-rule="evenodd"/><path d="M1190 1234 1300.7 1234 1321.15 1234 1338 1234 1338 1398.41C1338 1406.99 1337 1413.82 1334.99 1418.91 1332.99 1424 1329.04 1428.02 1323.16 1430.97 1317.28 1433.92 1310.19 1435.66 1301.9 1436.2 1293.61 1436.73 1283.85 1437 1272.62 1437 1271.55 1431.91 1269.82 1426.15 1267.41 1419.71 1265 1413.28 1262.6 1407.79 1260.19 1403.23 1267.94 1403.5 1275.03 1403.7 1281.45 1403.84 1287.86 1403.97 1292.28 1403.9 1294.68 1403.64 1296.82 1403.64 1298.36 1403.23 1299.3 1402.43 1300.23 1401.63 1300.7 1400.02 1300.7 1397.61L1300.7 1361.03 1225.3 1361.03 1225.3 1436.6 1190 1436.6 1190 1234ZM1225.3 1261.74 1225.3 1285.86 1300.7 1285.86 1300.7 1261.74 1225.3 1261.74ZM1225.3 1311.18 1225.3 1335.7 1300.7 1335.7 1300.7 1311.18 1225.3 1311.18Z" fill="#0D0D0D" fill-rule="evenodd"/><path d="M2687.28 1238 2726 1245.64C2716.86 1274.58 2704.49 1301.52 2688.9 1326.44L2678.61 1341.49 2691.63 1354.29C2696.46 1358.7 2701.47 1362.96 2706.64 1367.04 2727.34 1383.39 2750.46 1396.12 2776 1405.23 2773.04 1407.64 2769.88 1410.86 2766.52 1414.88 2763.16 1418.9 2759.94 1423.05 2756.85 1427.34 2753.75 1431.63 2751.13 1435.52 2748.98 1439 2722.64 1427.74 2698.91 1412.87 2677.81 1394.38 2672.53 1389.76 2667.42 1384.94 2662.48 1379.94L2653.99 1370.71 2647.46 1377.54C2642.15 1382.67 2636.61 1387.61 2630.83 1392.37 2607.71 1411.4 2580.02 1426.94 2547.76 1439 2546.42 1436.05 2544.6 1432.77 2542.32 1429.15 2540.03 1425.53 2537.61 1421.92 2535.06 1418.3 2532.5 1414.68 2530.15 1411.53 2528 1408.85 2557.57 1398.4 2583.04 1384.66 2604.42 1367.64 2609.76 1363.39 2614.86 1358.98 2619.73 1354.4L2631.32 1342.55 2622.56 1329.86C2606.84 1305.34 2593.73 1278.6 2583.25 1249.66L2616.31 1240.41C2625.45 1265.34 2637.62 1288.58 2652.81 1310.16L2654.6 1312.52 2657.04 1308.95C2670.75 1286.84 2680.83 1263.19 2687.28 1238Z" fill="#0D0D0D" fill-rule="evenodd"/><path d="M3082 1242 3251.79 1242 3259.03 1242 3288 1242 3288 1398.16C3288 1406.7 3286.93 1413.58 3284.78 1418.78 3282.64 1423.99 3278.34 1427.92 3271.91 1430.59 3265.47 1433.26 3257.42 1434.86 3247.77 1435.4 3238.11 1435.93 3226.17 1436.2 3211.96 1436.2 3211.15 1431.39 3209.74 1425.85 3207.73 1419.58 3205.72 1413.31 3203.51 1407.9 3201.09 1403.37 3210.48 1403.9 3219.4 1404.17 3227.85 1404.17 3236.3 1404.17 3241.86 1404.17 3244.55 1404.17 3249.38 1404.17 3251.79 1401.9 3251.79 1397.36L3251.79 1375.34 3117.41 1375.34 3117.41 1437 3082 1437 3082 1242ZM3117.41 1270.43 3117.41 1295.25 3251.79 1295.25 3251.79 1270.43 3117.41 1270.43ZM3117.41 1322.88 3117.41 1348.11 3251.79 1348.11 3251.79 1322.88 3117.41 1322.88Z" fill="#0D0D0D" fill-rule="evenodd"/><path d="M2018 1260 2299.28 1260 2314.13 1260 2337 1260 2337 1395.01C2337 1404.65 2335.8 1412.28 2333.39 1417.91 2330.98 1423.54 2326.3 1427.82 2319.34 1430.77 2312.39 1433.71 2303.43 1435.52 2292.46 1436.19 2281.49 1436.86 2268.12 1437.2 2252.33 1437.2 2251.53 1431.84 2249.93 1425.74 2247.52 1418.91 2246.32 1415.5 2245.11 1412.33 2243.91 1409.42L2240.66 1402.24 2132.36 1402.24 2132.36 1421.53 2099.46 1421.53 2099.46 1314.65 2116.71 1314.65 2132.36 1314.65 2252.74 1314.65 2252.74 1401.59 2271.8 1401.84C2281.29 1401.84 2287.65 1401.7 2290.86 1401.44 2294.07 1401.44 2296.27 1400.9 2297.48 1399.83 2298.68 1398.76 2299.28 1397.02 2299.28 1394.6L2299.28 1292.14 2054.92 1292.14 2054.92 1438 2018 1438 2018 1260ZM2132.36 1341.16 2132.36 1375.72 2219.03 1375.72 2219.03 1341.16 2132.36 1341.16Z" fill="#0D0D0D" fill-rule="evenodd"/></g></svg>